<svg width="70" height="71" viewBox="0 0 70 71" fill="none" xmlns="http://www.w3.org/2000/svg">
<g clip-path="url(#clip0_155_268)">
<path d="M47.5 53.3301V63.3301C47.5 64.6562 46.9732 65.9279 46.0355 66.8656C45.0979 67.8033 43.8261 68.3301 42.5 68.3301H7.5C6.17392 68.3301 4.90215 67.8033 3.96447 66.8656C3.02678 65.9279 2.5 64.6562 2.5 63.3301V8.33008C2.5 7.004 3.02678 5.73223 3.96447 4.79454C4.90215 3.85686 6.17392 3.33008 7.5 3.33008H42.5C43.8261 3.33008 45.0979 3.85686 46.0355 4.79454C46.9732 5.73223 47.5 7.004 47.5 8.33008V18.3301M32.5 35.8301H67.5M67.5 35.8301L57.5 25.8301M67.5 35.8301L57.5 45.8301" stroke="white" stroke-width="4" stroke-linecap="round" stroke-linejoin="round"/>
</g>
<defs>
<clipPath id="clip0_155_268">
<rect width="70" height="70" fill="white" transform="translate(0 0.830078)"/>
</clipPath>
</defs>
</svg>
