<svg width="64" height="65" viewBox="0 0 64 65" fill="none" xmlns="http://www.w3.org/2000/svg">
<path d="M2 56.8301H62L57.021 16.9731C56.984 13.6271 57.069 11.7741 57.069 11.7741C56.293 12.0131 55.138 12.1051 53.755 12.1051C53.521 12.1051 53.276 12.1011 53.027 12.0961C53.022 10.0071 53.066 8.83008 53.066 8.83008C51.865 10.4101 49.301 10.8121 46.378 10.8121C43.343 10.8121 39.922 10.3791 37.234 10.3791C33.087 10.3791 32.201 13.1541 32.009 14.3471C31.817 13.1491 30.927 10.3861 26.789 10.3861C24.101 10.3861 20.682 10.8191 17.648 10.8191C14.722 10.8191 12.158 10.4171 10.957 8.83508C10.957 8.83508 11.001 10.0111 10.995 12.0951C10.748 12.0991 10.502 12.1041 10.267 12.1041C8.882 12.1041 7.73 12.0121 6.954 11.7731C6.954 11.7731 7.035 13.5441 7.004 16.7591L2 56.8301ZM53.755 13.9671C54.26 13.9671 54.723 13.9551 55.148 13.9321C55.096 19.3651 55.327 34.2071 58.637 53.4121C58.0238 53.3137 57.4126 53.2027 56.804 53.0791C57.196 52.9161 57.507 52.6941 57.717 52.3951C53.923 36.3241 53.16 21.4671 53.046 13.9571C53.286 13.9621 53.525 13.9671 53.755 13.9671ZM37.624 12.9411C39.655 12.9411 42.373 13.1801 45.248 13.4331C47.256 13.6101 49.307 13.7881 51.178 13.8881C51.293 21.2831 52.024 35.7931 55.585 51.4961C55.316 51.5411 54.943 51.5761 54.429 51.5761C52.529 51.5761 49.807 51.0931 47.175 50.6251C44.211 50.0991 41.147 49.5541 38.647 49.5541C36.709 49.5541 35.183 49.9181 33.98 50.4751C33.934 50.4941 33.881 50.5081 33.838 50.5281L33.831 15.5171C33.866 15.0231 34.214 12.9411 37.624 12.9411ZM12.848 13.8881C14.719 13.7881 16.768 13.6101 18.775 13.4331C21.651 13.1811 24.369 12.9411 26.402 12.9411C29.701 12.9411 30.142 14.8691 30.193 15.5581L30.184 50.5271C30.105 50.4921 30.011 50.4641 29.928 50.4311C28.74 49.9021 27.254 49.5561 25.373 49.5561C22.873 49.5561 19.809 50.1021 16.846 50.6281C14.212 51.0971 11.491 51.5801 9.591 51.5801C9.077 51.5801 8.703 51.5451 8.438 51.5011C12 35.7961 12.731 21.2811 12.848 13.8881ZM8.877 13.9321C9.303 13.9551 9.765 13.9671 10.27 13.9671C10.5 13.9671 10.74 13.9621 10.98 13.9581C10.865 21.4661 10.101 36.3271 6.305 52.4011C6.514 52.6981 6.822 52.9201 7.209 53.0821C6.588 53.2061 5.977 53.3191 5.383 53.4131C8.696 34.2071 8.928 19.3651 8.877 13.9321Z" fill="white"/>
<path d="M25.1978 14.7464C27.7638 14.7464 28.6098 15.3284 28.6188 15.3344L28.8568 15.0224L29.0998 14.7174C29.0008 14.6434 28.0508 13.9814 25.2248 13.9814C23.0978 13.9814 20.4718 14.5204 18.1418 14.9944C16.4438 15.3424 14.9728 15.6434 14.1308 15.6434L14.0618 16.4214C14.9888 16.4214 16.5028 16.1104 18.2518 15.7504C20.5518 15.2794 23.1458 14.7464 25.1978 14.7464ZM25.0638 18.6664C27.6798 18.6664 28.5448 19.2714 28.5528 19.2774L28.7948 18.9554L29.0428 18.6374C28.9418 18.5564 27.9738 17.8694 25.0918 17.8694C22.9228 17.8694 20.2448 18.4274 17.8688 18.9244C16.1358 19.2834 14.6358 19.5974 13.7778 19.5974L13.7048 20.4084C14.6508 20.4084 16.1938 20.0844 17.9788 19.7124C20.3228 19.2214 22.9718 18.6664 25.0638 18.6664ZM24.9248 22.7464C27.5938 22.7464 28.4738 23.3734 28.4838 23.3814L28.7308 23.0454L28.9848 22.7164C28.8808 22.6324 27.8918 21.9174 24.9528 21.9174C22.7408 21.9174 20.0088 22.4984 17.5838 23.0144C15.8148 23.3894 14.2828 23.7164 13.4088 23.7164L13.3318 24.5584C14.2978 24.5584 15.8738 24.2224 17.6938 23.8344C20.0868 23.3214 22.7888 22.7464 24.9248 22.7464ZM24.7778 26.9924C27.5008 26.9924 28.3998 27.6484 28.4108 27.6544L28.6628 27.3054L28.9208 26.9594C28.8158 26.8744 27.8068 26.1284 24.8088 26.1284C22.5508 26.1284 19.7608 26.7334 17.2858 27.2724C15.4798 27.6634 13.9178 28.0014 13.0228 28.0014L12.9448 28.8814C13.9288 28.8814 15.5408 28.5304 17.3988 28.1254C19.8428 27.5924 22.5988 26.9924 24.7778 26.9924ZM24.6268 31.4174C27.4068 31.4174 28.3258 32.1014 28.3338 32.1084L28.5938 31.7434L28.8578 31.3834C28.7488 31.2944 27.7198 30.5184 24.6578 30.5184C22.3538 30.5184 19.5048 31.1484 16.9768 31.7084C15.1308 32.1154 13.5358 32.4704 12.6218 32.4704L12.5408 33.3874C13.5458 33.3874 15.1898 33.0214 17.0898 32.5974C19.5848 32.0424 22.3988 31.4174 24.6268 31.4174ZM24.4678 36.0324C27.3078 36.0324 28.2458 36.7444 28.2548 36.7524L28.5188 36.3724L28.7898 35.9974C28.6798 35.9044 27.6288 35.0944 24.5018 35.0944C22.1478 35.0944 19.2358 35.7524 16.6538 36.3364C14.7668 36.7624 13.1358 37.1314 12.2028 37.1314L12.1178 38.0864C13.1458 38.0864 14.8278 37.7054 16.7678 37.2654C19.3178 36.6844 22.1948 36.0324 24.4678 36.0324ZM24.3038 40.8504C27.2058 40.8504 28.1628 41.5964 28.1728 41.6044L28.4428 41.2064L28.7178 40.8144C28.6058 40.7164 27.5318 39.8714 24.3358 39.8714C21.9308 39.8714 18.9558 40.5594 16.3148 41.1674C14.3878 41.6124 12.7188 41.9994 11.7668 41.9994L11.6768 42.9994C12.7278 42.9994 14.4468 42.5994 16.4308 42.1384C19.0388 41.5324 21.9798 40.8504 24.3038 40.8504ZM24.1288 45.8854C27.0988 45.8854 28.0758 46.6624 28.0858 46.6704L28.3618 46.2544L28.6448 45.8464C28.5288 45.7444 27.4328 44.8604 24.1658 44.8604C21.7058 44.8604 18.6628 45.5784 15.9618 46.2164C13.9908 46.6824 12.2838 47.0824 11.3098 47.0824L11.2168 48.1284C12.2898 48.1284 14.0478 47.7124 16.0778 47.2314C18.7468 46.5984 21.7548 45.8854 24.1288 45.8854ZM35.4068 15.3344C35.4148 15.3284 36.2608 14.7464 38.8268 14.7464C40.8808 14.7464 43.4738 15.2794 45.7728 15.7504C47.5218 16.1104 49.0358 16.4214 49.9618 16.4214L49.8928 15.6434C49.0508 15.6434 47.5798 15.3424 45.8818 14.9944C43.5538 14.5204 40.9268 13.9814 38.7998 13.9814C35.9758 13.9814 35.0238 14.6434 34.9238 14.7174L35.1678 15.0224L35.4068 15.3344ZM38.9348 17.8704C36.0518 17.8704 35.0828 18.5574 34.9838 18.6384L35.2318 18.9564L35.4728 19.2784C35.4818 19.2734 36.3458 18.6674 38.9628 18.6674C41.0548 18.6674 43.7018 19.2214 46.0458 19.7124C47.8298 20.0854 49.3738 20.4084 50.3198 20.4084L50.2468 19.5974C49.3908 19.5974 47.8898 19.2844 46.1568 18.9244C43.7818 18.4284 41.1038 17.8704 38.9348 17.8704ZM39.0728 21.9174C36.1338 21.9174 35.1448 22.6324 35.0418 22.7164L35.2948 23.0454L35.5418 23.3814C35.5508 23.3744 36.4328 22.7464 39.1008 22.7464C41.2378 22.7464 43.9368 23.3214 46.3308 23.8334C48.1508 24.2214 49.7278 24.5574 50.6918 24.5574L50.6168 23.7154C49.7418 23.7154 48.2108 23.3884 46.4408 23.0134C44.0188 22.4974 41.2848 21.9174 39.0728 21.9174ZM39.2168 26.1284C36.2168 26.1284 35.2078 26.8734 35.1048 26.9594L35.3618 27.3054L35.6148 27.6544C35.6248 27.6484 36.5228 26.9924 39.2468 26.9924C41.4268 26.9924 44.1838 27.5924 46.6288 28.1244C48.4868 28.5294 50.0968 28.8804 51.0818 28.8804L51.0008 28.0014C50.1068 28.0014 48.5448 27.6634 46.7388 27.2724C44.2648 26.7334 41.4748 26.1284 39.2168 26.1284ZM39.3658 30.5184C36.3028 30.5184 35.2758 31.2944 35.1688 31.3834L35.4328 31.7434L35.6898 32.1084C35.7008 32.1014 36.6168 31.4174 39.3988 31.4174C41.6248 31.4174 44.4408 32.0424 46.9348 32.5974C48.8348 33.0214 50.4798 33.3874 51.4858 33.3874L51.4038 32.4704C50.4898 32.4704 48.8938 32.1154 47.0498 31.7084C44.5218 31.1484 41.6728 30.5184 39.3658 30.5184ZM39.5218 35.0944C36.3948 35.0944 35.3448 35.9054 35.2338 35.9974L35.5048 36.3724L35.7688 36.7524C35.7768 36.7444 36.7148 36.0324 39.5548 36.0324C41.8268 36.0324 44.7048 36.6844 47.2558 37.2644C49.1958 37.7044 50.8768 38.0854 51.9048 38.0854L51.8188 37.1304C50.8868 37.1304 49.2558 36.7614 47.3718 36.3354C44.7888 35.7524 41.8778 35.0944 39.5218 35.0944ZM39.6878 39.8704C36.4918 39.8704 35.4188 40.7164 35.3058 40.8134L35.5798 41.2054L35.8508 41.6034C35.8598 41.5954 36.8178 40.8494 39.7208 40.8494C42.0438 40.8494 44.9858 41.5324 47.5928 42.1364C49.5768 42.5974 51.2968 42.9974 52.3468 42.9974L52.2558 41.9974C51.3028 41.9974 49.6348 41.6104 47.7098 41.1654C45.0678 40.5584 42.0928 39.8704 39.6878 39.8704ZM39.8578 44.8594C36.5898 44.8594 35.4928 45.7444 35.3778 45.8454L35.6588 46.2534L35.9348 46.6694C35.9458 46.6614 36.9248 45.8844 39.8918 45.8844C42.2688 45.8844 45.2768 46.5974 47.9438 47.2304C49.9728 47.7114 51.7318 48.1274 52.8068 48.1274L52.7118 47.0814C51.7378 47.0814 50.0308 46.6814 48.0608 46.2154C45.3598 45.5774 42.3158 44.8594 39.8578 44.8594Z" fill="white"/>
</svg>
