<svg width="70" height="71" viewBox="0 0 70 71" fill="none" xmlns="http://www.w3.org/2000/svg">
<path d="M35.0152 29.3188L27.7507 22.0543V9.57975C27.7507 8.80401 28.3916 8.16309 29.1673 8.16309H40.834C41.6097 8.16309 42.2506 8.80401 42.2506 9.57975V22.0834L35.0152 29.3188ZM21.2543 28.5798L28.4897 35.8152L21.2252 43.0798H8.75065C7.97491 43.0798 7.33398 42.4388 7.33398 41.6631V29.9964C7.33398 29.2207 7.97491 28.5798 8.75065 28.5798H21.2543ZM34.9861 42.3407L42.2506 49.6052V62.0798C42.2506 62.8555 41.6097 63.4964 40.834 63.4964H29.1673C28.3916 63.4964 27.7507 62.8555 27.7507 62.0798V49.5761L34.9861 42.3407ZM41.4824 35.8443L48.7178 28.6089H48.7381H61.2506C62.0264 28.6089 62.6673 29.2498 62.6673 30.0256V41.6923C62.6673 42.468 62.0264 43.1089 61.2506 43.1089H48.747L41.4824 35.8443Z" stroke="white" stroke-width="3"/>
</svg>
