<svg width="64" height="65" viewBox="0 0 64 65" fill="none" xmlns="http://www.w3.org/2000/svg">
<path d="M2 56.8301H62L57.021 16.9731C56.984 13.6271 57.069 11.7741 57.069 11.7741C56.293 12.0131 55.138 12.1051 53.755 12.1051C53.521 12.1051 53.276 12.1011 53.027 12.0961C53.022 10.0071 53.066 8.83008 53.066 8.83008C51.865 10.4101 49.301 10.8121 46.378 10.8121C43.343 10.8121 39.922 10.3791 37.234 10.3791C33.087 10.3791 32.201 13.1541 32.009 14.3471C31.817 13.1491 30.927 10.3861 26.789 10.3861C24.101 10.3861 20.682 10.8191 17.648 10.8191C14.722 10.8191 12.158 10.4171 10.957 8.83508C10.957 8.83508 11.001 10.0111 10.995 12.0951C10.748 12.0991 10.502 12.1041 10.267 12.1041C8.882 12.1041 7.73 12.0121 6.954 11.7731C6.954 11.7731 7.035 13.5441 7.004 16.7591L2 56.8301ZM53.755 13.9671C54.26 13.9671 54.723 13.9551 55.148 13.9321C55.096 19.3651 55.327 34.2071 58.637 53.4121C58.0238 53.3137 57.4126 53.2027 56.804 53.0791C57.196 52.9161 57.507 52.6941 57.717 52.3951C53.923 36.3241 53.16 21.4671 53.046 13.9571C53.286 13.9621 53.525 13.9671 53.755 13.9671ZM37.624 12.9411C39.655 12.9411 42.373 13.1801 45.248 13.4331C47.256 13.6101 49.307 13.7881 51.178 13.8881C51.293 21.2831 52.024 35.7931 55.585 51.4961C55.316 51.5411 54.943 51.5761 54.429 51.5761C52.529 51.5761 49.807 51.0931 47.175 50.6251C44.211 50.0991 41.147 49.5541 38.647 49.5541C36.709 49.5541 35.183 49.9181 33.98 50.4751C33.934 50.4941 33.881 50.5081 33.838 50.5281L33.831 15.5171C33.866 15.0231 34.214 12.9411 37.624 12.9411ZM12.848 13.8881C14.719 13.7881 16.768 13.6101 18.775 13.4331C21.651 13.1811 24.369 12.9411 26.402 12.9411C29.701 12.9411 30.142 14.8691 30.193 15.5581L30.184 50.5271C30.105 50.4921 30.011 50.4641 29.928 50.4311C28.74 49.9021 27.254 49.5561 25.373 49.5561C22.873 49.5561 19.809 50.1021 16.846 50.6281C14.212 51.0971 11.491 51.5801 9.591 51.5801C9.077 51.5801 8.703 51.5451 8.438 51.5011C12 35.7961 12.731 21.2811 12.848 13.8881ZM8.877 13.9321C9.303 13.9551 9.765 13.9671 10.27 13.9671C10.5 13.9671 10.74 13.9621 10.98 13.9581C10.865 21.4661 10.101 36.3271 6.305 52.4011C6.514 52.6981 6.822 52.9201 7.209 53.0821C6.588 53.2061 5.977 53.3191 5.383 53.4131C8.696 34.2071 8.928 19.3651 8.877 13.9321Z" fill="#68E4FF"/>
<path d="M25.1969 14.7461C27.7629 14.7461 28.6089 15.3281 28.6179 15.3341L28.8559 15.0221L29.0989 14.7171C28.9999 14.6431 28.0499 13.9811 25.2239 13.9811C23.0969 13.9811 20.4709 14.5201 18.1409 14.9941C16.4429 15.3421 14.9719 15.6431 14.1299 15.6431L14.0609 16.4211C14.9879 16.4211 16.5019 16.1101 18.2509 15.7501C20.5509 15.2791 23.1449 14.7461 25.1969 14.7461ZM25.0629 18.6661C27.6789 18.6661 28.5439 19.2711 28.5519 19.2771L28.7939 18.9551L29.0419 18.6371C28.9409 18.5561 27.9729 17.8691 25.0909 17.8691C22.9219 17.8691 20.2439 18.4271 17.8679 18.9241C16.1349 19.2831 14.6349 19.5971 13.7769 19.5971L13.7039 20.4081C14.6499 20.4081 16.1929 20.0841 17.9779 19.7121C20.3219 19.2211 22.9709 18.6661 25.0629 18.6661ZM24.9239 22.7461C27.5929 22.7461 28.4729 23.3731 28.4829 23.3811L28.7299 23.0451L28.9839 22.7161C28.8799 22.6321 27.8909 21.9171 24.9519 21.9171C22.7399 21.9171 20.0079 22.4981 17.5829 23.0141C15.8139 23.3891 14.2819 23.7161 13.4079 23.7161L13.3309 24.5581C14.2969 24.5581 15.8729 24.2221 17.6929 23.8341C20.0859 23.3211 22.7879 22.7461 24.9239 22.7461ZM24.7769 26.9921C27.4999 26.9921 28.3989 27.6481 28.4099 27.6541L28.6619 27.3051L28.9199 26.9591C28.8149 26.8741 27.8059 26.1281 24.8079 26.1281C22.5499 26.1281 19.7599 26.7331 17.2849 27.2721C15.4789 27.6631 13.9169 28.0011 13.0219 28.0011L12.9439 28.8811C13.9279 28.8811 15.5399 28.5301 17.3979 28.1251C19.8419 27.5921 22.5979 26.9921 24.7769 26.9921ZM24.6259 31.4171C27.4059 31.4171 28.3249 32.1011 28.3329 32.1081L28.5929 31.7431L28.8569 31.3831C28.7479 31.2941 27.7189 30.5181 24.6569 30.5181C22.3529 30.5181 19.5039 31.1481 16.9759 31.7081C15.1299 32.1151 13.5349 32.4701 12.6209 32.4701L12.5399 33.3871C13.5449 33.3871 15.1889 33.0211 17.0889 32.5971C19.5839 32.0421 22.3979 31.4171 24.6259 31.4171ZM24.4669 36.0321C27.3069 36.0321 28.2449 36.7441 28.2539 36.7521L28.5179 36.3721L28.7889 35.9971C28.6789 35.9041 27.6279 35.0941 24.5009 35.0941C22.1469 35.0941 19.2349 35.7521 16.6529 36.3361C14.7659 36.7621 13.1349 37.1311 12.2019 37.1311L12.1169 38.0861C13.1449 38.0861 14.8269 37.7051 16.7669 37.2651C19.3169 36.6841 22.1939 36.0321 24.4669 36.0321ZM24.3029 40.8501C27.2049 40.8501 28.1619 41.5961 28.1719 41.6041L28.4419 41.2061L28.7169 40.8141C28.6049 40.7161 27.5309 39.8711 24.3349 39.8711C21.9299 39.8711 18.9549 40.5591 16.3139 41.1671C14.3869 41.6121 12.7179 41.9991 11.7659 41.9991L11.6759 42.9991C12.7269 42.9991 14.4459 42.5991 16.4299 42.1381C19.0379 41.5321 21.9789 40.8501 24.3029 40.8501ZM24.1279 45.8851C27.0979 45.8851 28.0749 46.6621 28.0849 46.6701L28.3609 46.2541L28.6439 45.8461C28.5279 45.7441 27.4319 44.8601 24.1649 44.8601C21.7049 44.8601 18.6619 45.5781 15.9609 46.2161C13.9899 46.6821 12.2829 47.0821 11.3089 47.0821L11.2159 48.1281C12.2889 48.1281 14.0469 47.7121 16.0769 47.2311C18.7459 46.5981 21.7539 45.8851 24.1279 45.8851ZM35.4059 15.3341C35.4139 15.3281 36.2599 14.7461 38.8259 14.7461C40.8799 14.7461 43.4729 15.2791 45.7719 15.7501C47.5209 16.1101 49.0349 16.4211 49.9609 16.4211L49.8919 15.6431C49.0499 15.6431 47.5789 15.3421 45.8809 14.9941C43.5529 14.5201 40.9259 13.9811 38.7989 13.9811C35.9749 13.9811 35.0229 14.6431 34.9229 14.7171L35.1669 15.0221L35.4059 15.3341ZM38.9339 17.8701C36.0509 17.8701 35.0819 18.5571 34.9829 18.6381L35.2309 18.9561L35.4719 19.2781C35.4809 19.2731 36.3449 18.6671 38.9619 18.6671C41.0539 18.6671 43.7009 19.2211 46.0449 19.7121C47.8289 20.0851 49.3729 20.4081 50.3189 20.4081L50.2459 19.5971C49.3899 19.5971 47.8889 19.2841 46.1559 18.9241C43.7809 18.4281 41.1029 17.8701 38.9339 17.8701ZM39.0719 21.9171C36.1329 21.9171 35.1439 22.6321 35.0409 22.7161L35.2939 23.0451L35.5409 23.3811C35.5499 23.3741 36.4319 22.7461 39.0999 22.7461C41.2369 22.7461 43.9359 23.3211 46.3299 23.8331C48.1499 24.2211 49.7269 24.5571 50.6909 24.5571L50.6159 23.7151C49.7409 23.7151 48.2099 23.3881 46.4399 23.0131C44.0179 22.4971 41.2839 21.9171 39.0719 21.9171ZM39.2159 26.1281C36.2159 26.1281 35.2069 26.8731 35.1039 26.9591L35.3609 27.3051L35.6139 27.6541C35.6239 27.6481 36.5219 26.9921 39.2459 26.9921C41.4259 26.9921 44.1829 27.5921 46.6279 28.1241C48.4859 28.5291 50.0959 28.8801 51.0809 28.8801L50.9999 28.0011C50.1059 28.0011 48.5439 27.6631 46.7379 27.2721C44.2639 26.7331 41.4739 26.1281 39.2159 26.1281ZM39.3649 30.5181C36.3019 30.5181 35.2749 31.2941 35.1679 31.3831L35.4319 31.7431L35.6889 32.1081C35.6999 32.1011 36.6159 31.4171 39.3979 31.4171C41.6239 31.4171 44.4399 32.0421 46.9339 32.5971C48.8339 33.0211 50.4789 33.3871 51.4849 33.3871L51.4029 32.4701C50.4889 32.4701 48.8929 32.1151 47.0489 31.7081C44.5209 31.1481 41.6719 30.5181 39.3649 30.5181ZM39.5209 35.0941C36.3939 35.0941 35.3439 35.9051 35.2329 35.9971L35.5039 36.3721L35.7679 36.7521C35.7759 36.7441 36.7139 36.0321 39.5539 36.0321C41.8259 36.0321 44.7039 36.6841 47.2549 37.2641C49.1949 37.7041 50.8759 38.0851 51.9039 38.0851L51.8179 37.1301C50.8859 37.1301 49.2549 36.7611 47.3709 36.3351C44.7879 35.7521 41.8769 35.0941 39.5209 35.0941ZM39.6869 39.8701C36.4909 39.8701 35.4179 40.7161 35.3049 40.8131L35.5789 41.2051L35.8499 41.6031C35.8589 41.5951 36.8169 40.8491 39.7199 40.8491C42.0429 40.8491 44.9849 41.5321 47.5919 42.1361C49.5759 42.5971 51.2959 42.9971 52.3459 42.9971L52.2549 41.9971C51.3019 41.9971 49.6339 41.6101 47.7089 41.1651C45.0669 40.5581 42.0919 39.8701 39.6869 39.8701ZM39.8569 44.8591C36.5889 44.8591 35.4919 45.7441 35.3769 45.8451L35.6579 46.2531L35.9339 46.6691C35.9449 46.6611 36.9239 45.8841 39.8909 45.8841C42.2679 45.8841 45.2759 46.5971 47.9429 47.2301C49.9719 47.7111 51.7309 48.1271 52.8059 48.1271L52.7109 47.0811C51.7369 47.0811 50.0299 46.6811 48.0599 46.2151C45.3589 45.5771 42.3149 44.8591 39.8569 44.8591Z" fill="#68E4FF"/>
</svg>
