<svg width="70" height="70" viewBox="0 0 70 70" fill="none" xmlns="http://www.w3.org/2000/svg">
<path d="M20.4167 40.8333C19.1435 40.8351 17.8861 41.1149 16.7322 41.6529C15.5782 42.1909 14.5556 42.9742 13.7357 43.9482C12.9158 44.9222 12.3183 46.0634 11.9849 47.2922C11.6516 48.521 11.5904 49.8077 11.8056 51.0625C12.0209 52.3173 12.5074 53.5101 13.2311 54.5575C13.9549 55.605 14.8986 56.4818 15.9962 57.1269C17.0939 57.772 18.3191 58.1698 19.5863 58.2925C20.8535 58.4152 22.1323 58.2599 23.3333 57.8374" stroke="#B260CE" stroke-width="3.5" stroke-linecap="round" stroke-linejoin="round"/>
<path d="M12.4367 45.5145C10.6913 44.6742 9.18257 43.4125 8.04672 41.8433C6.91087 40.274 6.18366 38.4466 5.9307 36.526C5.67775 34.6054 5.90702 32.6521 6.59783 30.8423C7.28863 29.0324 8.41923 27.4231 9.88757 26.1595M9.97507 25.9233C9.01853 24.4919 8.59928 22.7683 8.79155 21.0575C8.98382 19.3467 9.77519 17.7591 11.0256 16.5758C12.276 15.3925 13.9047 14.6897 15.6235 14.5919C17.3423 14.4942 19.0402 15.0077 20.4167 16.0416M21.1109 16.2312C20.6456 15.2426 20.4085 14.162 20.417 13.0694C20.4255 11.9768 20.6794 10.9001 21.16 9.91883C21.6406 8.93757 22.3356 8.07686 23.1936 7.40033C24.0516 6.72379 25.0507 6.24873 26.117 6.01026C27.1833 5.77179 28.2895 5.776 29.354 6.02258C30.4184 6.26917 31.4139 6.75182 32.2667 7.43487C33.1195 8.11792 33.8079 8.98389 34.281 9.96879C34.7542 10.9537 34.9999 12.0323 35.0001 13.1249V58.3333C35.0001 59.8804 34.3855 61.3641 33.2915 62.4581C32.1976 63.552 30.7138 64.1666 29.1667 64.1666C27.6196 64.1666 26.1359 63.552 25.042 62.4581C23.948 61.3641 23.3334 59.8804 23.3334 58.3333M35.0001 20.4166C35.0001 22.7373 35.9219 24.9629 37.5629 26.6038C39.2038 28.2447 41.4294 29.1666 43.7501 29.1666M49.5834 40.8333C50.8566 40.8352 52.114 41.1149 53.2679 41.6529C54.4218 42.1909 55.4444 42.9743 56.2643 43.9483C57.0843 44.9223 57.6818 46.0635 58.0151 47.2922C58.3485 48.521 58.4097 49.8077 58.1944 51.0625C57.9792 52.3174 57.4927 53.5101 56.7689 54.5576C56.0451 55.605 55.1015 56.4818 54.0038 57.1269C52.9062 57.772 51.681 58.1698 50.4138 58.2925C49.1465 58.4152 47.8678 58.2599 46.6667 57.8374" stroke="#B260CE" stroke-width="3.5" stroke-linecap="round" stroke-linejoin="round"/>
<path d="M57.5635 45.5145C59.3089 44.6742 60.8176 43.4125 61.9535 41.8433C63.0893 40.274 63.8165 38.4466 64.0695 36.526C64.3224 34.6054 64.0932 32.6521 63.4024 30.8423C62.7116 29.0324 61.581 27.4231 60.1126 26.1595M60.0251 25.9233C60.9817 24.4919 61.4009 22.7683 61.2086 21.0575C61.0164 19.3467 60.225 17.7591 58.9746 16.5758C57.7242 15.3925 56.0955 14.6897 54.3767 14.5919C52.6579 14.4942 50.96 15.0077 49.5835 16.0416M35.0001 13.1249C35.0003 12.0323 35.246 10.9537 35.7192 9.96879C36.1923 8.98389 36.8807 8.11792 37.7335 7.43487C38.5863 6.75182 39.5818 6.26917 40.6462 6.02258C41.7107 5.776 42.8169 5.77179 43.8832 6.01026C44.9495 6.24873 45.9486 6.72379 46.8066 7.40033C47.6646 8.07686 48.3596 8.93757 48.8402 9.91883C49.3208 10.9001 49.5747 11.9768 49.5832 13.0694C49.5917 14.162 49.3546 15.2426 48.8893 16.2312M46.6668 58.3333C46.6668 59.8804 46.0522 61.3641 44.9582 62.4581C43.8643 63.552 42.3806 64.1666 40.8335 64.1666C39.2864 64.1666 37.8026 63.552 36.7087 62.4581C35.6147 61.3641 35.0001 59.8804 35.0001 58.3333" stroke="#B260CE" stroke-width="3.5" stroke-linecap="round" stroke-linejoin="round"/>
</svg>
