<svg width="70" height="71" viewBox="0 0 70 71" fill="none" xmlns="http://www.w3.org/2000/svg">
<path d="M57.884 8.28671C57.6874 8.13326 57.4583 8.02666 57.2143 7.97501C56.9703 7.92336 56.7177 7.92803 56.4758 7.98867L21.4758 16.7387C21.1211 16.8276 20.8063 17.0326 20.5814 17.3209C20.3565 17.6092 20.2344 17.9644 20.2344 18.3301V49.532C18.619 48.1611 16.5838 47.3831 14.4659 47.3267C12.3479 47.2704 10.2743 47.9392 8.58835 49.2223C6.9024 50.5055 5.70529 52.326 5.19527 54.3824C4.68525 56.4387 4.89292 58.6077 5.78388 60.5299C6.67484 62.4521 8.19564 64.0124 10.0944 64.9523C11.9932 65.8922 14.1561 66.1554 16.2249 65.6982C18.2937 65.241 20.1442 64.0909 21.4701 62.4384C22.796 60.7858 23.5177 58.73 23.5156 56.6113V32.7348L55.2344 24.8051V40.782C53.619 39.4111 51.5838 38.6331 49.4659 38.5768C47.3479 38.5204 45.2743 39.1892 43.5883 40.4723C41.9024 41.7555 40.7053 43.576 40.1953 45.6324C39.6853 47.6887 39.8929 49.8577 40.7839 51.7799C41.6748 53.7021 43.1956 55.2624 45.0944 56.2023C46.9932 57.1422 49.1561 57.4054 51.2249 56.9482C53.2937 56.491 55.1442 55.3409 56.4701 53.6884C57.796 52.0358 58.5177 49.98 58.5156 47.8613V9.58007C58.5156 9.33066 58.4587 9.08454 58.3492 8.86043C58.2398 8.63631 58.0807 8.4401 57.884 8.28671ZM14.2188 62.6269C13.029 62.6269 11.8659 62.2741 10.8767 61.6131C9.88739 60.9521 9.11635 60.0126 8.66104 58.9134C8.20573 57.8142 8.0866 56.6046 8.31872 55.4377C8.55083 54.2708 9.12376 53.1989 9.96506 52.3576C10.8064 51.5163 11.8782 50.9434 13.0452 50.7113C14.2121 50.4792 15.4216 50.5983 16.5208 51.0536C17.62 51.5089 18.5596 52.28 19.2206 53.2692C19.8816 54.2585 20.2344 55.4215 20.2344 56.6113C20.2344 58.2068 19.6006 59.7369 18.4724 60.865C17.3443 61.9932 15.8142 62.6269 14.2188 62.6269ZM23.5156 29.3551V19.6098L55.2344 11.6801V21.4254L23.5156 29.3551ZM49.2188 53.8769C48.029 53.8769 46.8659 53.5241 45.8767 52.8631C44.8874 52.2021 44.1164 51.2626 43.661 50.1634C43.2057 49.0642 43.0866 47.8546 43.3187 46.6877C43.5508 45.5208 44.1238 44.4489 44.9651 43.6076C45.8064 42.7663 46.8782 42.1934 48.0452 41.9613C49.2121 41.7292 50.4216 41.8483 51.5208 42.3036C52.62 42.7589 53.5596 43.53 54.2206 44.5192C54.8816 45.5085 55.2344 46.6715 55.2344 47.8613C55.2344 49.4568 54.6006 50.9869 53.4724 52.115C52.3443 53.2432 50.8142 53.8769 49.2188 53.8769Z" fill="#FFA621"/>
</svg>
