<svg width="70" height="71" viewBox="0 0 70 71" fill="none" xmlns="http://www.w3.org/2000/svg">
<path d="M35.0145 29.3192L27.7499 22.0546V9.58012C27.7499 8.80438 28.3908 8.16345 29.1666 8.16345H40.8333C41.609 8.16345 42.2499 8.80438 42.2499 9.58012V22.0838L35.0145 29.3192ZM21.2536 28.5801L28.489 35.8155L21.2244 43.0801H8.74992C7.97418 43.0801 7.33325 42.4392 7.33325 41.6635V29.9968C7.33325 29.221 7.97418 28.5801 8.74992 28.5801H21.2536ZM34.9853 42.341L42.2499 49.6056V62.0801C42.2499 62.8559 41.609 63.4968 40.8333 63.4968H29.1666C28.3908 63.4968 27.7499 62.8559 27.7499 62.0801V49.5764L34.9853 42.341ZM41.4817 35.8447L48.7171 28.6093H48.7374H61.2499C62.0257 28.6093 62.6666 29.2502 62.6666 30.026V41.6926C62.6666 42.4684 62.0257 43.1093 61.2499 43.1093H48.7462L41.4817 35.8447Z" stroke="#FF5858" stroke-width="3"/>
</svg>
