<svg width="70" height="71" viewBox="0 0 70 71" fill="none" xmlns="http://www.w3.org/2000/svg">
<path d="M35 5.20508C28.943 5.20508 23.0219 7.0012 17.9857 10.3663C12.9494 13.7314 9.02414 18.5144 6.7062 24.1104C4.38827 29.7064 3.78179 35.8641 4.96346 41.8047C6.14514 47.7454 9.06188 53.2022 13.3449 57.4852C17.6279 61.7682 23.0847 64.685 29.0254 65.8666C34.966 67.0483 41.1237 66.4418 46.7197 64.1239C52.3157 61.806 57.0987 57.8807 60.4638 52.8444C63.8289 47.8082 65.625 41.8871 65.625 35.8301C65.6157 27.7107 62.3862 19.9265 56.6449 14.1852C50.9036 8.44387 43.1194 5.21434 35 5.20508ZM8.75001 35.8301C8.75599 32.8473 9.27393 29.8876 10.2813 27.0801H21.875L32.8125 35.8301L26.6875 43.9085C26.3717 44.3298 26.2184 44.8508 26.2557 45.376C26.2931 45.9012 26.5186 46.3953 26.891 46.7676L32.8125 53.3301V61.9707C26.2571 61.4175 20.1479 58.4249 15.6924 53.5847C11.237 48.7444 8.75958 42.4088 8.75001 35.8301ZM46.8891 59.2035L52.4585 42.3598C52.5378 41.9615 52.5048 41.549 52.363 41.1684C52.2212 40.7879 51.9763 40.4543 51.6556 40.2051L32.8125 24.8926L37.1875 20.5176H48.7375C49.1964 20.5172 49.6436 20.3726 50.0158 20.104C50.388 19.8355 50.6662 19.4567 50.8113 19.0213L51.8941 15.7707C55.2128 18.5556 57.7889 22.1202 59.3916 26.1452C60.9943 30.1702 61.5737 34.5299 61.0777 38.8338C60.5817 43.1376 59.026 47.2513 56.5498 50.8063C54.0735 54.3612 50.7542 57.2464 46.8891 59.2035Z" fill="#FFE663"/>
</svg>
