<svg width="70" height="70" viewBox="0 0 70 70" fill="none" xmlns="http://www.w3.org/2000/svg">
<path d="M20.4167 40.834C19.1435 40.8359 17.8861 41.1156 16.7322 41.6536C15.5782 42.1916 14.5556 42.975 13.7357 43.949C12.9158 44.923 12.3183 46.0642 11.9849 47.2929C11.6516 48.5217 11.5904 49.8084 11.8056 51.0632C12.0209 52.3181 12.5074 53.5108 13.2311 54.5583C13.9549 55.6057 14.8986 56.4825 15.9962 57.1276C17.0939 57.7727 18.3191 58.1705 19.5863 58.2932C20.8535 58.416 22.1323 58.2606 23.3333 57.8381" stroke="white" stroke-width="3.5" stroke-linecap="round" stroke-linejoin="round"/>
<path d="M12.436 45.515C10.6906 44.6747 9.18184 43.413 8.04599 41.8438C6.91014 40.2745 6.18292 38.4471 5.92997 36.5265C5.67702 34.6059 5.90629 32.6526 6.59709 30.8428C7.2879 29.0329 8.4185 27.4236 9.88684 26.16M9.97434 25.9238C9.0178 24.4924 8.59855 22.7688 8.79082 21.058C8.98308 19.3472 9.77446 17.7596 11.0249 16.5763C12.2752 15.3929 13.904 14.6902 15.6228 14.5924C17.3416 14.4947 19.0395 15.0082 20.416 16.0421M21.1102 16.2317C20.6449 15.2431 20.4077 14.1625 20.4162 13.0699C20.4247 11.9773 20.6787 10.9006 21.1593 9.91932C21.6399 8.93805 22.3349 8.07735 23.1929 7.40081C24.0509 6.72428 25.0499 6.24922 26.1162 6.01075C27.1825 5.77228 28.2888 5.77649 29.3532 6.02307C30.4177 6.26966 31.4131 6.75231 32.2659 7.43536C33.1188 8.11841 33.8072 8.98438 34.2803 9.96927C34.7534 10.9542 34.9992 12.0328 34.9993 13.1254V58.3338C34.9993 59.8809 34.3848 61.3646 33.2908 62.4586C32.1968 63.5525 30.7131 64.1671 29.166 64.1671C27.6189 64.1671 26.1352 63.5525 25.0412 62.4586C23.9473 61.3646 23.3327 59.8809 23.3327 58.3338M34.9993 20.4171C34.9993 22.7377 35.9212 24.9633 37.5622 26.6043C39.2031 28.2452 41.4287 29.1671 43.7493 29.1671M49.5827 40.8338C50.8558 40.8357 52.1133 41.1154 53.2672 41.6534C54.4211 42.1914 55.4437 42.9747 56.2636 43.9488C57.0835 44.9228 57.681 46.064 58.0144 47.2927C58.3477 48.5215 58.4089 49.8082 58.1937 51.063C57.9785 52.3179 57.492 53.5106 56.7682 54.558C56.0444 55.6055 55.1008 56.4823 54.0031 57.1274C52.9055 57.7725 51.6803 58.1703 50.413 58.293C49.1458 58.4157 47.867 58.2604 46.666 57.8379" stroke="white" stroke-width="3.5" stroke-linecap="round" stroke-linejoin="round"/>
<path d="M57.5633 45.515C59.3088 44.6747 60.8175 43.413 61.9533 41.8438C63.0892 40.2745 63.8164 38.4471 64.0694 36.5265C64.3223 34.6059 64.0931 32.6526 63.4022 30.8428C62.7114 29.0329 61.5808 27.4236 60.1125 26.16M60.025 25.9238C60.9815 24.4924 61.4008 22.7688 61.2085 21.058C61.0163 19.3472 60.2249 17.7596 58.9745 16.5763C57.7241 15.3929 56.0953 14.6902 54.3766 14.5924C52.6578 14.4947 50.9598 15.0082 49.5833 16.0421M35 13.1254C35.0002 12.0328 35.2459 10.9542 35.719 9.96927C36.1922 8.98438 36.8806 8.11841 37.7334 7.43536C38.5862 6.75231 39.5816 6.26966 40.6461 6.02307C41.7105 5.77649 42.8168 5.77228 43.8831 6.01075C44.9494 6.24922 45.9485 6.72428 46.8065 7.40081C47.6645 8.07735 48.3595 8.93805 48.8401 9.91932C49.3207 10.9006 49.5746 11.9773 49.5831 13.0699C49.5916 14.1625 49.3545 15.2431 48.8892 16.2317M46.6667 58.3338C46.6667 59.8809 46.0521 61.3646 44.9581 62.4586C43.8642 63.5525 42.3804 64.1671 40.8333 64.1671C39.2862 64.1671 37.8025 63.5525 36.7085 62.4586C35.6146 61.3646 35 59.8809 35 58.3338" stroke="white" stroke-width="3.5" stroke-linecap="round" stroke-linejoin="round"/>
</svg>
