<svg width="70" height="70" viewBox="0 0 70 70" fill="none" xmlns="http://www.w3.org/2000/svg">
<path d="M35 4.375C28.943 4.375 23.0219 6.17113 17.9857 9.53624C12.9494 12.9014 9.02414 17.6843 6.7062 23.2803C4.38827 28.8763 3.78179 35.034 4.96346 40.9746C6.14514 46.9153 9.06188 52.3722 13.3449 56.6551C17.6279 60.9381 23.0847 63.8549 29.0254 65.0365C34.966 66.2182 41.1237 65.6117 46.7197 63.2938C52.3157 60.9759 57.0987 57.0506 60.4638 52.0143C63.8289 46.9781 65.625 41.0571 65.625 35C65.6157 26.8806 62.3862 19.0964 56.6449 13.3551C50.9036 7.61379 43.1194 4.38426 35 4.375ZM8.75001 35C8.75599 32.0172 9.27393 29.0576 10.2813 26.25H21.875L32.8125 35L26.6875 43.0784C26.3717 43.4997 26.2184 44.0207 26.2557 44.5459C26.2931 45.0711 26.5186 45.5652 26.891 45.9375L32.8125 52.5V61.1406C26.2571 60.5874 20.1479 57.5949 15.6924 52.7546C11.237 47.9144 8.75958 41.5787 8.75001 35ZM46.8891 58.3734L52.4585 41.5297C52.5378 41.1314 52.5048 40.7189 52.363 40.3384C52.2212 39.9578 51.9763 39.6242 51.6556 39.375L32.8125 24.0625L37.1875 19.6875H48.7375C49.1964 19.6872 49.6436 19.5425 50.0158 19.274C50.388 19.0054 50.6662 18.6267 50.8113 18.1912L51.8941 14.9406C55.2128 17.7255 57.7889 21.2901 59.3916 25.3151C60.9943 29.3401 61.5737 33.6998 61.0777 38.0037C60.5817 42.3076 59.026 46.4212 56.5498 49.9762C54.0735 53.5311 50.7542 56.4164 46.8891 58.3734Z" fill="white"/>
</svg>
