<?xml version="1.0" standalone="no"?>
<!DOCTYPE svg PUBLIC "-//W3C//DTD SVG 20010904//EN"
 "http://www.w3.org/TR/2001/REC-SVG-20010904/DTD/svg10.dtd">
<svg version="1.0" xmlns="http://www.w3.org/2000/svg"
 width="2000.000000pt" height="2000.000000pt" viewBox="0 0 2000.000000 2000.000000"
 preserveAspectRatio="xMidYMid meet">

<g transform="translate(0.000000,2000.000000) scale(0.100000,-0.100000)"
fill="#000000" stroke="none">
<path d="M0 10000 l0 -10000 10000 0 10000 0 0 10000 0 10000 -10000 0 -10000
0 0 -10000z m16000 7500 c500 -52 947 -322 1225 -740 132 -198 213 -400 263
-654 14 -73 16 -646 19 -6031 3 -4282 1 -5981 -7 -6060 -15 -148 -34 -238 -80
-376 -207 -623 -764 -1070 -1422 -1139 -128 -13 -11868 -13 -11996 0 -204 22
-362 66 -552 157 -447 211 -785 620 -905 1093 -52 206 -50 142 -50 2010 l0
1745 840 0 840 0 3 -1662 2 -1663 5820 0 5820 0 0 5820 0 5820 -5820 0 -5820
0 -2 -1662 -3 -1663 -840 0 -840 0 0 1755 c0 1881 -2 1788 51 2003 26 108 94
282 145 374 271 487 758 815 1295 872 116 12 11896 13 12014 1z m-4330 -5415
l2085 -2085 -2088 -2087 -2087 -2088 -592 593 -593 592 1075 1075 1075 1075
-4025 2 -4025 3 0 835 0 835 4025 3 4025 2 -1075 1075 -1075 1075 590 590
c324 324 592 590 595 590 3 0 943 -938 2090 -2085z"/>
</g>
</svg>
