<svg width="70" height="71" viewBox="0 0 70 71" fill="none" xmlns="http://www.w3.org/2000/svg">
<path d="M60.5939 16.7932C57.7239 13.929 53.836 12.3185 49.7813 12.3144C45.7266 12.3103 41.8354 13.9129 38.9596 16.7713L35.0002 20.4572L31.0408 16.7713C28.1672 13.9013 24.2712 12.2904 20.2099 12.293C16.1485 12.2955 12.2546 13.9114 9.38457 16.785C6.51459 19.6586 4.90369 23.5546 4.90625 27.6159C4.90882 31.6773 6.52463 35.5712 9.39824 38.4412L33.8326 63.2311C33.9852 63.3857 34.167 63.5084 34.3675 63.5922C34.5679 63.676 34.783 63.7191 35.0002 63.7191C35.2174 63.7191 35.4325 63.676 35.6329 63.5922C35.8334 63.5084 36.0152 63.3857 36.1678 63.2311L60.5939 38.4522C62.0164 37.0302 63.1448 35.3419 63.9147 33.4838C64.6845 31.6256 65.0808 29.634 65.0808 27.6227C65.0808 25.6113 64.6845 23.6197 63.9147 21.7616C63.1448 19.9034 62.0164 18.2151 60.5939 16.7932ZM58.2643 36.1389L35.0002 59.742L11.7279 36.1307C9.48477 33.8718 8.22829 30.816 8.23371 27.6325C8.23914 24.4491 9.50603 21.3976 11.7569 19.1463C14.0077 16.8951 17.0591 15.6277 20.2425 15.6218C23.4259 15.6159 26.482 16.8718 28.7412 19.1147C28.7545 19.1288 28.7691 19.1417 28.785 19.1529L33.8818 23.8998C34.1855 24.1827 34.5851 24.34 35.0002 24.34C35.4153 24.34 35.8149 24.1827 36.1186 23.8998L41.2154 19.1502C41.2312 19.1389 41.2459 19.1261 41.2592 19.1119C42.3756 17.9889 43.7027 17.0973 45.1644 16.4882C46.6262 15.8792 48.1938 15.5647 49.7773 15.5628C51.3608 15.5609 52.9292 15.8716 54.3923 16.4771C55.8555 17.0827 57.1848 17.9711 58.3039 19.0915C59.423 20.2118 60.3099 21.5421 60.9138 23.0059C61.5177 24.4698 61.8266 26.0385 61.823 27.622C61.8193 29.2056 61.503 30.7728 60.8923 32.2338C60.2817 33.6949 59.3886 35.021 58.2643 36.1361V36.1389Z" fill="white"/>
</svg>
