<svg width="70" height="71" viewBox="0 0 70 71" fill="none" xmlns="http://www.w3.org/2000/svg">
<path d="M60.5937 16.7934C57.7237 13.9291 53.8357 12.3187 49.781 12.3146C45.7263 12.3105 41.8351 13.9131 38.9593 16.7715L35 20.4574L31.0406 16.7715C28.167 13.9015 24.271 12.2906 20.2096 12.2932C16.1483 12.2957 12.2543 13.9115 9.38433 16.7851C6.51434 19.6588 4.90344 23.5548 4.90601 27.6161C4.90857 31.6774 6.52439 35.5714 9.398 38.4414L33.8324 63.2312C33.985 63.3858 34.1668 63.5086 34.3672 63.5924C34.5676 63.6762 34.7827 63.7193 35 63.7193C35.2172 63.7193 35.4323 63.6762 35.6327 63.5924C35.8331 63.5086 36.0149 63.3858 36.1675 63.2312L60.5937 38.4523C62.0162 37.0304 63.1446 35.3421 63.9144 33.4839C64.6843 31.6258 65.0806 29.6342 65.0806 27.6228C65.0806 25.6115 64.6843 23.6199 63.9144 21.7617C63.1446 19.9036 62.0162 18.2153 60.5937 16.7934ZM58.264 36.1391L35 59.7422L11.7277 36.1309C9.48452 33.872 8.22804 30.8161 8.23347 27.6327C8.2389 24.4493 9.50579 21.3977 11.7566 19.1465C14.0075 16.8953 17.0588 15.6279 20.2423 15.622C23.4257 15.616 26.4817 16.872 28.741 19.1148C28.7542 19.129 28.7689 19.1418 28.7847 19.1531L33.8816 23.9C34.1853 24.1829 34.5849 24.3402 35 24.3402C35.415 24.3402 35.8146 24.1829 36.1183 23.9L41.2152 19.1504C41.231 19.1391 41.2457 19.1263 41.2589 19.1121C42.3753 17.9891 43.7025 17.0975 45.1642 16.4884C46.6259 15.8794 48.1935 15.5649 49.777 15.563C51.3606 15.5611 52.9289 15.8718 54.3921 16.4773C55.8553 17.0829 57.1846 17.9713 58.3037 19.0916C59.4228 20.212 60.3097 21.5423 60.9136 23.0061C61.5174 24.47 61.8264 26.0387 61.8227 27.6222C61.819 29.2057 61.5028 30.773 60.8921 32.234C60.2814 33.6951 59.3883 35.0212 58.264 36.1363V36.1391Z" fill="#E00000"/>
</svg>
