<svg width="70" height="71" viewBox="0 0 70 71" fill="none" xmlns="http://www.w3.org/2000/svg">
<g clip-path="url(#clip0_137_320)">
<path d="M46.5848 0.000552583C45.7919 -0.0160482 44.8582 0.3399 43.8374 1.27051C37.4 10.1669 40.4146 16.8527 43.93 28.2598C47.7466 40.6447 44.388 49.1523 30.5218 45.1544L32.4549 51.3825C49.2504 53.9069 52.6129 41.7289 50.3529 31.2033C47.2637 16.8138 42.8616 13.2983 48.9917 4.06235C49.7156 2.51931 48.6108 0.0431613 46.5846 0.000690923L46.5848 0.000552583ZM52.1821 6.31369C51.0643 6.9751 50.6728 7.88219 50.6338 9.89213C55.1471 13.675 58.984 19.0213 62.0025 22.7865C60.8856 23.4518 59.4875 24.0662 57.9543 23.8783C56.5247 21.8733 52.7185 17.3694 49.8979 14.6498C50.1279 17.1185 50.802 18.9542 51.0066 21.0925C55.429 26.0576 55.6638 28.5873 55.6638 28.5873C61.3691 28.8767 66.1815 26.3875 69.3927 23.4952C71.1245 22.0084 68.7015 17.9777 65.6104 20.7443C61.4348 15.5585 57.1144 10.5537 52.1821 6.31369ZM33.4513 18.8182C24.5079 18.7163 18.1208 25.541 18.5623 34.413C19.2609 42.1797 22.7677 47.2665 23.3299 53.5403L19.4899 49.2028C17.9882 49.0382 16.6719 48.8326 15.0512 49.7274L23.1485 58.2976C22.9295 59.6141 22.5617 61.0033 22.0053 62.4917C18.8365 59.4465 15.1064 54.8785 11.0156 50.4549C8.65133 50.9796 7.34997 52.3184 7.32576 52.3585L20.2365 66.2746C16.8895 69.9792 22.6578 72.4934 25.279 69.5164C34.2978 59.0092 27.3487 46.5685 24.3951 34.6106L30.9689 41.7601C33.2864 43.031 36.3879 42.994 37.5375 42.2908L24.9175 29.1665C25.5695 27.7107 26.2572 27.3479 27.8287 26.5714L40.1385 39.401C40.9179 37.9368 42.0776 36.5392 40.6084 33.4109L32.5958 24.5425C33.9644 24.084 36.9965 25.0372 39.3718 25.7796L37.4281 19.3004C36.0587 18.9888 34.7288 18.8328 33.4513 18.8182ZM13.6603 41.5094C7.37695 41.4441 3.92564 44.029 0.963923 46.6349C-1.68805 48.9837 1.6577 53.2706 4.65898 51.0697C8.42141 47.7132 11.5922 45.9414 17.6061 46.3715L16.5334 41.7074C15.5133 41.5822 14.5579 41.5189 13.6603 41.5096V41.5094Z" fill="white"/>
</g>
<defs>
<clipPath id="clip0_137_320">
<rect width="70" height="70.83" fill="white"/>
</clipPath>
</defs>
</svg>
