<svg width="70" height="70" viewBox="0 0 70 70" fill="none" xmlns="http://www.w3.org/2000/svg">
<path fill-rule="evenodd" clip-rule="evenodd" d="M2.45312 56.7254C2.45312 62.3334 17.0201 66.8896 34.9539 66.8896C52.8878 66.8896 67.4503 62.3334 67.4503 56.7254C67.4503 53.6752 63.0582 50.9022 56.2437 49.0391C58.5994 50.2532 60.0076 51.6745 60.0076 53.2049C60.0076 57.5977 48.7539 61.2071 34.9539 61.2071C21.1541 61.2071 9.9773 57.5974 9.9773 53.2049C9.9773 51.6663 11.3613 50.2573 13.7412 49.0391C6.88418 50.9026 2.4534 53.6643 2.45312 56.7254ZM17.028 21.7568L34.9539 33.1081L52.9739 21.7568L34.9539 30.7432L17.028 21.7568ZM34.9539 35.473L17.028 47.7703C11.8253 51.0811 22.1366 55.3378 34.9539 55.3378C47.7712 55.3378 57.7037 51.0811 52.9739 47.7703L34.9539 35.473ZM2.45326 12.9969C2.45326 16.058 6.88432 18.8199 13.7412 20.6828C11.3613 19.4648 9.9773 18.0604 9.9773 16.5218C9.9773 12.1293 21.1539 8.51485 34.9539 8.51485C48.7539 8.51485 60.0076 12.1287 60.0076 16.5215C60.0076 18.0519 58.5994 19.4689 56.2435 20.683C63.0582 18.8199 67.4503 16.0468 67.4503 12.9966C67.4503 7.38883 52.8879 2.83268 34.954 2.83268C17.0201 2.83268 2.45326 7.38896 2.45326 12.9969Z" fill="white"/>
</svg>
